<svg xmlns="http://www.w3.org/2000/svg" width="19.519" height="15.856" viewBox="0 0 19.519 15.856">
  <g id="social-twitter" opacity="0.5">
    <path id="Path_440" data-name="Path 440" d="M19.52-15.3a8.261,8.261,0,0,1-2.3.629A4.109,4.109,0,0,0,18.3-15.62a4.008,4.008,0,0,0,.686-1.278,7.88,7.88,0,0,1-2.554.972,4,4,0,0,0-1.3-.925,3.908,3.908,0,0,0-1.62-.334,3.975,3.975,0,0,0-2.831,1.172,3.975,3.975,0,0,0-1.172,2.831,4.3,4.3,0,0,0,.1.915,11.46,11.46,0,0,1-4.632-1.249A11.365,11.365,0,0,1,1.36-16.459a4.2,4.2,0,0,0-.534,2.02A3.908,3.908,0,0,0,1.3-12.523,4.029,4.029,0,0,0,2.6-11.1a3.974,3.974,0,0,1-1.818-.5v.038A4.039,4.039,0,0,0,1.7-9.01,3.992,3.992,0,0,0,4-7.637a3.738,3.738,0,0,1-1.065.157,3.6,3.6,0,0,1-.744-.076,3.947,3.947,0,0,0,1.4,1.973,4.078,4.078,0,0,0,2.335.81,8.117,8.117,0,0,1-2.3,1.244,8.317,8.317,0,0,1-2.679.467A7.989,7.989,0,0,1,0-3.12,11.358,11.358,0,0,0,2.888-1.795a11.228,11.228,0,0,0,3.25.467q5.548-.209,8.464-3.708a11.832,11.832,0,0,0,2.935-7.691q0-.248-.019-.515a8.325,8.325,0,0,0,2-2.054Z" transform="translate(-0.001 17.184)" fill="#0c2050"/>
  </g>
</svg>
