<svg xmlns="http://www.w3.org/2000/svg" width="19.558" height="13.78" viewBox="0 0 19.558 13.78">
  <g id="social-youtube" transform="translate(0 0)" opacity="0.5">
    <path id="Path_442" data-name="Path 442" d="M19.117-13.854a16.889,16.889,0,0,1,.353,2.935q.067,1.639.067,1.792T19.47-7.336A16.889,16.889,0,0,1,19.117-4.4a2.686,2.686,0,0,1-.638,1.1,2.3,2.3,0,0,1-1.1.638,28.117,28.117,0,0,1-4.375.353q-2.906.067-3.25.067t-3.25-.067a28.117,28.117,0,0,1-4.375-.353,2.3,2.3,0,0,1-1.1-.638A2.686,2.686,0,0,1,.4-4.4,16.889,16.889,0,0,1,.045-7.335Q-.021-8.974-.021-9.127t.067-1.792A16.889,16.889,0,0,1,.4-13.854a2.605,2.605,0,0,1,.638-1.1,2.34,2.34,0,0,1,1.1-.629,26.18,26.18,0,0,1,4.375-.372q2.906-.067,3.25-.067t3.25.067a26.18,26.18,0,0,1,4.375.372,2.34,2.34,0,0,1,1.1.629,2.605,2.605,0,0,1,.635,1.1ZM7.756-6.23l5.111-2.9L7.756-12.043Z" transform="translate(0.021 16.025)" fill="#0c2050"/>
  </g>
</svg>
