<?xml version="1.0" encoding="utf-8"?>
<!-- Generator: Adobe Illustrator 22.0.1, SVG Export Plug-In . SVG Version: 6.00 Build 0)  -->
<svg version="1.1" xmlns="http://www.w3.org/2000/svg" xmlns:xlink="http://www.w3.org/1999/xlink" viewBox="0 0 471.2 472"
	xml:space="preserve">
	<path d="M406.6,346.5c-18,0-27.5-7.9-35.1-14.3c-6.6-5.6-11.4-9.6-22-9.6c-10.6,0-15.4,4-22,9.6c-7.6,6.4-17.1,14.3-35.1,14.3
	c-17.9,0-27.4-7.9-35-14.3c-6.6-5.6-11.4-9.6-22-9.6c-10.5,0-15.3,4-22,9.6c-7.6,6.4-17.1,14.3-35,14.3c-18,0-27.4-7.9-35-14.3
	c-6.6-5.6-11.4-9.6-22-9.6s-15.3,4-22,9.6c-7.6,6.4-17.1,14.3-35,14.3c-0.8,0-1.5-0.1-2.3-0.1c16.5,17.9,35.8,33.3,57.1,45.4v19.7
	c0,24,19.4,43.6,43.6,43.6h145.4c24.1,0,43.6-19.6,43.6-43.6v-19.7c21.3-12.1,40.6-27.5,57.1-45.4
	C408.2,346.4,407.5,346.5,406.6,346.5L406.6,346.5z" />
	<path d="M42.5,316.6c6.6,5.6,11.4,9.6,22,9.6s15.3-4,22-9.6c7.6-6.4,17.1-14.3,35-14.3s27.4,7.9,35,14.3c6.6,5.6,11.4,9.6,22,9.6
	c10.5,0,15.3-4,22-9.6c7.6-6.4,17.1-14.3,35-14.3c18,0,27.4,7.9,35,14.3c6.6,5.5,11.4,9.6,22,9.6c10.6,0,15.4-4,22-9.6
	c7.6-6.4,17.1-14.3,35.1-14.3c18,0,27.5,7.9,35.1,14.3c6.6,5.6,11.4,9.6,22,9.6c10.6,0,15.4-4,22-9.6c2.2-1.9,4.7-3.9,7.4-5.8
	c20.7-33.3,33.3-72,35.1-113.6c0.3-5.7-4.5-10.5-10.2-10.5H10.2c-5.7,0-10.5,4.7-10.2,10.5c1.8,41.6,14.4,80.4,35.1,113.6
	C37.9,312.7,40.3,314.7,42.5,316.6L42.5,316.6z M411.7,239.6H449c5.6,0,10.2,4.6,10.2,10.2c0,5.6-4.6,10.2-10.2,10.2h-37.3
	c-5.6,0-10.2-4.6-10.2-10.2C401.6,244.2,406.1,239.6,411.7,239.6z M337.2,239.6h37.3c5.6,0,10.2,4.6,10.2,10.2
	c0,5.6-4.6,10.2-10.2,10.2h-37.3c-5.6,0-10.2-4.6-10.2-10.2C327,244.2,331.6,239.6,337.2,239.6z M262.6,239.6h37.3
	c5.6,0,10.2,4.6,10.2,10.2c0,5.6-4.6,10.2-10.2,10.2h-37.3c-5.6,0-10.2-4.6-10.2-10.2C252.5,244.2,257,239.6,262.6,239.6z
	M188.1,239.6h37.3c5.6,0,10.2,4.6,10.2,10.2c0,5.6-4.6,10.2-10.2,10.2l-37.3,0c-5.6,0-10.2-4.6-10.2-10.2
	C177.9,244.2,182.5,239.6,188.1,239.6L188.1,239.6z M113.5,239.6h37.3c5.6,0,10.2,4.6,10.2,10.2c0,5.6-4.6,10.2-10.2,10.2h-37.3
	c-5.6,0-10.2-4.6-10.2-10.2C103.4,244.2,107.9,239.6,113.5,239.6L113.5,239.6z M39,239.6h37.3c5.6,0,10.2,4.6,10.2,10.2
	c0,5.6-4.6,10.2-10.2,10.2L39,260c-5.6,0-10.2-4.6-10.2-10.2C28.8,244.2,33.4,239.6,39,239.6L39,239.6z" />
	<path
		d="M417.2,110.6l-35.9,55.7H250.6L309,49c14.4-29.9,52.8-41.5,84.9-23.3C425.8,43.8,435.7,82.9,417.2,110.6L417.2,110.6z" />
</svg>