<?xml version="1.0" encoding="utf-8"?>
<!-- Generator: Adobe Illustrator 22.0.1, SVG Export Plug-In . SVG Version: 6.00 Build 0)  -->
<svg version="1.1" xmlns="http://www.w3.org/2000/svg" xmlns:xlink="http://www.w3.org/1999/xlink" viewBox="0 0 540 538.8"
	xml:space="preserve">
	<path d="M495.2,0c-36.3,46.6,8.2-13.7-79.9,102.6c7.7,6.6,14,12.3,21.2,20.6h0.1c0,0,0.4-0.4,0.9-0.7c0.4-0.4,0.7-0.6,0.7-0.6
	c5.7-4.4,27.6-21.4,100.6-78.3C528.5,24.5,514,10.1,495.2,0L495.2,0z M502.7,103.9L451,143.1c4.5,7.5,8,15.2,10.3,23.1l59.9-39.5
	C515.5,118.4,509.3,110.9,502.7,103.9L502.7,103.9z M379.4,206c6.4-2.4,13.4,0.9,15.8,7.2c5.8,15.7,15.1,26.4,27.8,33.2
	c13-20.6,19-39.8,17.8-57.8v-0.2c-0.1-0.2-0.2-0.6-0.2-0.8c-1.1-16.2-9.5-30.5-16.4-39.5c-0.1-0.1-0.1-0.2-0.2-0.3
	c0-0.1-0.1-0.1-0.2-0.2c-13.8-20.6-45.9-47.7-72.1-49.2c-37.9-3.5-74.9,26-102,53c-6.6,6.7-14.4,15-23.1,24.6
	c17.9,10.3,30.2,25.4,36.7,45.1c2.2,6.4-1.3,13.3-7.7,15.5c-6.5,2.1-13.4-1.3-15.6-7.7c-5-15.3-15.2-26.3-30.1-33.7
	c-19.4,22.6-41.6,50.1-64.2,80c7.4,16.5,18.7,27.3,34.9,32.7c6.4,2.2,9.9,9.2,7.7,15.6c-2.1,6.4-9.1,10-15.5,7.8
	c-18.8-6.3-33.4-17.7-43.7-34.2c-16,21.7-32,44.2-47.3,67L107,389c4.8,4.8,4.8,12.7,0,17.4c-4.7,4.8-12.5,4.8-17.4,0l-21.5-21.5
	C2,487.7-3.5,528.2,3.6,535.3c30.1,29.9,257.6-138.3,308.7-179.8c-0.6-0.9-1.1-1.8-1.6-2.9c-5.8-17.8-18.1-30-37.4-37.2
	c-6.4-2.4-9.6-9.5-7.2-15.8c2.4-6.4,9.5-9.6,15.8-7.2c24.3,9.1,41.1,24.9,50,46.9c22.3-18.6,41.4-35.8,55.9-50.2
	c7.7-7.8,14.4-15.3,20.5-22.7c-16.4-9.6-28.4-24.5-36-44.7C369.8,215.5,373,208.4,379.4,206L379.4,206z M412.2,17.6l-39.6,59.9
	c0.8,0.2,1.6,0.7,2.4,0.9c7.5,2.6,14.8,6,20.7,9.5l39.2-51.7C427.9,29.4,420.4,23.2,412.2,17.6L412.2,17.6z" />
</svg>