<?xml version="1.0" encoding="utf-8"?>
<!-- Generator: Adobe Illustrator 22.0.1, SVG Export Plug-In . SVG Version: 6.00 Build 0)  -->
<svg version="1.1" xmlns="http://www.w3.org/2000/svg" xmlns:xlink="http://www.w3.org/1999/xlink" viewBox="0 0 380 380"
	xml:space="preserve">
	<path d="M366.4,116.8c-7.3-11.5-19-19.5-32.4-22.2c4.8-20.8,4.8-42.5,0-63.3c-0.5-2.3-1.9-4.3-3.8-5.6c-2-1.3-4.4-1.7-6.7-1.2
	c-2.3,0.5-4.3,1.9-5.5,3.9c-1.3,2-1.7,4.4-1.1,6.6c4.3,18.8,4.1,38.3-0.5,57.1c-23.7-2.4-42.6-1.9-58.2,15.5v0
	c-3.3,3.9-6.2,8-8.8,12.4c-8.5,15.7-14.8,32.4-18.8,49.8C214.7,231,116.9,293.3,54,322.8l-7.7,3.5c-10.8,5.1-22,9.2-33.4,12.5
	c-3.9,1-6.6,4.5-6.6,8.5c0,4,2.7,7.5,6.6,8.5c23.8,4.9,47.9,7.2,72.2,7.1c44.8,0.7,89.2-8.6,129.9-27.3
	c99.2-48.3,132.8-108.2,149.5-148.8C376.2,158.3,376.8,134.1,366.4,116.8L366.4,116.8z M344.8,188.5L344.8,188.5
	c-9.4,21.5-22.1,41.5-37.6,59.1c-1.7,1.9-4.1,3-6.6,3c-2.1,0-4.2-0.8-5.8-2.2c-3.6-3.2-4-8.7-0.8-12.3c14.5-16.3,26.3-34.7,35-54.7
	c2-4.4,7.2-6.3,11.5-4.4C344.9,179.1,346.7,184.2,344.8,188.5L344.8,188.5z M354.1,162.3L354.1,162.3c-0.9,4-4.6,6.8-8.7,6.7
	c-0.7,0.1-1.3,0.1-2,0c-4.7-1.1-7.6-5.8-6.5-10.5c0.6-2.6,1-5.2,1.3-7.9c0.5-4.8,4.8-8.3,9.7-7.8c4.8,0.5,8.3,4.8,7.8,9.7
	c-0.3,3.4-0.8,6.8-1.6,10.1L354.1,162.3z M36.6,311c-12.9-22.4-23.9-57.7,1.8-93h0c0.9-1.3,2.4-1.8,3.9-1.4s2.5,1.8,2.5,3.3
	c1.6,30.7,22.3,55,45.1,34c25.4-23.3,11.6-50.6-15.8-70c-26.3-18.7-39.1-65-1.4-90.6c1.1-0.7,2.5-0.8,3.7-0.2c1.2,0.6,1.9,1.8,2,3.1
	c-1.1,24.3,27.6,35,38.2-1.3c9.3-31.7,13.1-61.3-4.3-71c-1.4-0.7-2.1-2.3-1.9-3.8s1.5-2.7,3.1-2.9c26.3-2,67.6,7,45,90.3
	c-29.1,107.5,48.2,24.1,63.3-20.3c0.5-1.3,1.8-2.2,3.2-2.2s2.7,0.9,3.2,2.2c2.6,6.1,6.8,11.4,12.1,15.3c-2.1,2.8-4.1,5.7-5.9,8.8
	c-9.2,17.1-16.1,35.3-20.6,54.2C201,215,118.2,273.7,46.7,307.3l-7.4,3.4L36.6,311z" />
</svg>