<?xml version="1.0" encoding="utf-8"?>
<!-- Generator: Adobe Illustrator 22.0.1, SVG Export Plug-In . SVG Version: 6.00 Build 0)  -->
<svg version="1.1" xmlns="http://www.w3.org/2000/svg" xmlns:xlink="http://www.w3.org/1999/xlink" viewBox="0 0 550 550"
	xml:space="preserve">
	<path d="M538.6,238.4L498.5,219c-11.1-5.3-19.8-14.6-24.5-25.9c-4.7-11.4-5.1-24.1-1-35.7l14.8-42.1c1.6-4.2,1.6-8.8,0.1-13
	c-1.5-4.2-4.5-7.7-8.3-9.9c-3.9-2.2-8.4-3-12.8-2.2L423,98.3c-12.2,2.3-24.8-0.1-35.4-6.6C377,85.2,369.3,75,365.8,63.1l-12.4-42.4
	c-1.2-4.3-3.9-8-7.6-10.4s-8.2-3.6-12.6-3.1c-4.4,0.5-8.5,2.5-11.6,5.8L291,45.4c-8.5,9.1-20.2,14.6-32.6,15.6
	c-12.4,1-24.8-2.8-34.6-10.4L188.9,23c-3.5-2.7-7.9-4.1-12.3-4c-4.5,0.2-8.7,1.9-12,4.9c-3.3,3-5.4,7.1-6,11.5l-5.6,44
	c-1.6,12.3-7.8,23.6-17.2,31.6c-9.5,8-21.6,12.3-34,11.9l-44.4-1.3c-4.5-0.2-8.9,1.3-12.4,4c-3.5,2.8-5.9,6.7-6.8,11.1
	c-0.9,4.4-0.2,8.9,2,12.9l21.2,39.2h0c5.9,10.9,7.5,23.6,4.5,35.7c-3,12-10.3,22.5-20.6,29.5L8.8,279c-3.7,2.5-6.4,6.2-7.6,10.5
	c-1.2,4.3-0.8,8.9,1,12.9s5.1,7.3,9.1,9.2L51.4,331c11,5.4,19.7,14.6,24.4,26c4.7,11.3,5.1,24,1.1,35.6l-14.8,42.1
	c-1.6,4.2-1.6,8.8-0.1,13c1.5,4.2,4.5,7.7,8.3,9.9c3.9,2.2,8.4,3,12.8,2.2l43.7-8.1c12.2-2.3,24.8,0.1,35.4,6.6
	c10.6,6.5,18.4,16.7,21.8,28.6l12.4,42.4c1.2,4.3,3.9,8,7.6,10.4s8.2,3.6,12.6,3.1c4.4-0.5,8.5-2.5,11.6-5.8l30.5-32.5
	c8.5-9.1,20.2-14.6,32.6-15.6c12.4-1,24.8,2.8,34.6,10.4L361,527c3.5,2.7,7.9,4.1,12.3,4c4.5-0.2,8.7-1.9,12-4.9
	c3.3-3,5.4-7.1,6-11.5l5.6-44c1.6-12.3,7.8-23.6,17.2-31.6c9.5-8,21.6-12.3,34-11.9l44.4,1.3c4.5,0.2,8.9-1.3,12.4-4
	c3.5-2.8,5.9-6.7,6.8-11.1c0.9-4.4,0.2-8.9-2-12.9l-21.2-39.2h0c-5.9-10.9-7.5-23.6-4.5-35.7c3-12,10.3-22.5,20.6-29.5l36.7-25
	c3.7-2.5,6.3-6.3,7.5-10.5c1.2-4.3,0.8-8.9-1-12.9S542.6,240.3,538.6,238.4L538.6,238.4z M295.9,178.7c7.2-3.1,15.4-3.3,22.7-0.4
	c7.3,2.9,13.2,8.5,16.3,15.8c3.1,7.2,3.3,15.4,0.4,22.7c-2.9,7.3-8.6,13.2-15.8,16.3s-15.4,3.3-22.7,0.3
	c-7.3-2.9-13.2-8.6-16.3-15.8c-3.1-7.2-3.2-15.3-0.3-22.6C283.1,187.7,288.7,181.8,295.9,178.7L295.9,178.7z M175.3,262.4
	c-3.1-7.2-3.2-15.4-0.3-22.7c2.9-7.3,8.6-13.1,15.8-16.2c7.2-3.1,15.4-3.2,22.7-0.3c7.3,2.9,13.1,8.6,16.2,15.8
	c3.1,7.2,3.2,15.4,0.3,22.7c-2.9,7.3-8.6,13.1-15.9,16.2c-7.2,3.1-15.4,3.2-22.7,0.3C184.2,275.3,178.4,269.6,175.3,262.4
	L175.3,262.4z M315.9,370.8c-18.4,7.9-39.1,9.1-58.3,3.5c-19.2-5.6-35.9-17.8-47.2-34.4c-2.3-3.5-2.9-7.9-1.7-11.9
	c1.2-4,4.2-7.3,8-8.9l130.3-55.7c3.8-1.7,8.2-1.6,12,0.3c3.7,1.9,6.5,5.3,7.4,9.4c4.2,19.6,1.4,40-7.8,57.8
	C349.5,348.9,334.3,362.9,315.9,370.8L315.9,370.8z" />
</svg>