<?xml version="1.0" encoding="utf-8"?>
<!-- Generator: Adobe Illustrator 22.0.1, SVG Export Plug-In . SVG Version: 6.00 Build 0)  -->
<svg version="1.1" xmlns="http://www.w3.org/2000/svg" xmlns:xlink="http://www.w3.org/1999/xlink" viewBox="0 0 490 489.9"
	xml:space="preserve">
	<path
		d="M385,49.7c-0.8-5.1-3.8-9.6-8.2-12.3c-4.4-2.7-9.8-3.3-14.7-1.6c-4.9,1.7-8.8,5.4-10.7,10.2l-49.9,124.8l-39-157.5
	c-1.3-5.1-4.8-9.3-9.5-11.6c-4.7-2.2-10.2-2.2-15,0c-4.7,2.2-8.2,6.5-9.5,11.6l-39.4,157.5L138.8,46c-1.8-4.9-5.7-8.8-10.7-10.5
	c-5-1.7-10.4-1.1-14.9,1.6c-4.5,2.8-7.5,7.4-8.2,12.6c-1.2,8.6-35,212.8-35,265.3c0,46.4,18.4,90.9,51.3,123.7
	c32.8,32.8,77.3,51.3,123.7,51.3s90.9-18.4,123.7-51.3c32.8-32.8,51.3-77.3,51.3-123.7C420,262.4,386.2,58.2,385,49.7L385,49.7z
	M245,437.5c-25.9-0.1-50.4-11.7-66.9-31.7c-16.5-19.9-23.4-46.2-18.7-71.6c4.7-25.5,20.4-47.6,42.9-60.3c5.1-2.7,11.3-2.7,16.4,0
	c5.1,2.6,8.7,7.6,9.4,13.3c1.7,12.5,7.9,24,17.4,32.3c9.5,8.3,21.7,12.9,34.4,13c9,0,17.8-2.4,25.6-7c5.1-2.8,11.2-3,16.4-0.3
	c5.2,2.6,8.7,7.7,9.5,13.5c0.6,3.8,1,7.6,1.1,11.4c0,23.2-9.2,45.5-25.6,61.9C290.5,428.2,268.2,437.5,245,437.5L245,437.5z" />
</svg>