<?xml version="1.0" encoding="utf-8"?>
<!-- Generator: Adobe Illustrator 22.0.1, SVG Export Plug-In . SVG Version: 6.00 Build 0)  -->
<svg version="1.1" xmlns="http://www.w3.org/2000/svg" xmlns:xlink="http://www.w3.org/1999/xlink"
	viewBox="0 0 436.8 436.8" xml:space="preserve">
	<path d="M428.3,194.9l-11.4-13.7c-6.9-8.3-9.8-19.2-8-29.8l3-17.6c3-17.5-6.9-34.6-23.5-40.7l-16.8-6.2
	c-10.1-3.7-18.1-11.7-21.8-21.8l-6.2-16.8c-6.1-16.6-23.2-26.5-40.7-23.5l-17.6,3c-10.6,1.8-21.5-1.1-29.8-8L241.9,8.5
	c-13.6-11.3-33.4-11.3-47,0l-13.7,11.4c-8.3,6.9-19.2,9.8-29.8,8l-17.6-3c-17.5-3-34.6,6.9-40.7,23.5l-6.2,16.8
	c-3.7,10.1-11.7,18.1-21.8,21.8l-16.8,6.2c-16.6,6.1-26.5,23.2-23.5,40.7l3,17.6c1.8,10.6-1.1,21.5-8,29.8L8.5,194.9
	c-11.3,13.6-11.3,33.4,0,47l11.4,13.7c6.9,8.3,9.8,19.2,8,29.8l-3,17.6c-3,17.5,6.9,34.6,23.5,40.7l16.8,6.2
	c10.1,3.7,18.1,11.7,21.8,21.8l6.2,16.8c6.1,16.6,23.2,26.5,40.7,23.5l17.6-3c10.6-1.8,21.5,1.1,29.8,8l13.7,11.4
	c13.6,11.3,33.4,11.3,47,0l13.7-11.4c8.3-6.9,19.2-9.8,29.8-8l17.6,3c17.5,3,34.6-6.9,40.7-23.5l6.2-16.8
	c3.7-10.1,11.7-18.1,21.8-21.8l16.8-6.2c16.6-6.1,26.5-23.2,23.5-40.7l-3-17.6c-1.8-10.6,1.1-21.5,8-29.8l11.4-13.7
	C439.6,228.3,439.6,208.5,428.3,194.9z" />
</svg>