<svg width="510" height="510" viewBox="0 0 510 510" fill="none" xmlns="http://www.w3.org/2000/svg">
<path d="M474.4 253.9C492.4 253.9 507 239.3 507 221.3C507 203.3 492.4 188.7 474.4 188.7C456.4 188.7 441.8 203.3 441.8 221.3C441.8 239.2 456.4 253.9 474.4 253.9Z" fill="white"/>
<path d="M68.2 221.3C68.2 203.3 53.6 188.7 35.6 188.7C17.6 188.7 3 203.3 3 221.3C3 239.3 17.6 253.9 35.6 253.9C53.6 253.9 68.2 239.2 68.2 221.3Z" fill="white"/>
<path d="M287.6 110.7C287.6 92.7001 273 78.1001 255 78.1001C237 78.1001 222.4 92.7001 222.4 110.7C222.4 128.7 237 143.3 255 143.3C273 143.3 287.6 128.6 287.6 110.7Z" fill="white"/>
<path d="M56.8 263.1L140.6 432H369.3L453.1 263.1C450.7 261.9 448.3 260.4 446.2 258.8L342.7 311.3C339.2 313.1 334.9 311.7 333.1 308.2L255 158.7L176.8 308.2C175 311.7 170.7 313 167.2 311.3L63.8 258.7C61.6 260.4 59.3 261.8 56.8 263.1Z" fill="white"/>
</svg>
