<?xml version="1.0" standalone="no"?>
<!DOCTYPE svg PUBLIC "-//W3C//DTD SVG 20010904//EN"
 "http://www.w3.org/TR/2001/REC-SVG-20010904/DTD/svg10.dtd">
<svg version="1.0" xmlns="http://www.w3.org/2000/svg"
 width="700.000000pt" height="700.000000pt" viewBox="0 0 700.000000 700.000000"
 preserveAspectRatio="xMidYMid meet">
<metadata>
Created by potrace 1.14, written by Peter Selinger 2001-2017
</metadata>
<g transform="translate(0.000000,700.000000) scale(0.100000,-0.100000)"
fill="#000000" stroke="none">
<path d="M3410 5919 c-116 -22 -252 -124 -304 -227 -87 -172 -61 -376 66 -514
61 -67 136 -110 238 -135 40 -10 150 -8 194 3 117 31 224 111 283 211 52 89
71 220 48 328 -9 44 -48 124 -83 172 -40 53 -142 126 -211 148 -62 20 -166 26
-231 14z"/>
<path d="M3483 4788 c-10 -18 -40 -73 -65 -123 -26 -49 -94 -180 -152 -290
-58 -110 -106 -205 -106 -212 0 -6 -4 -14 -9 -17 -4 -3 -25 -38 -46 -78 -37
-73 -116 -224 -205 -393 -52 -99 -134 -256 -230 -440 -247 -474 -248 -476
-274 -497 -42 -35 -75 -24 -359 121 -445 227 -965 491 -1066 542 l-93 47 -48
-30 c-37 -23 -47 -34 -42 -47 4 -9 111 -225 239 -481 127 -256 382 -770 567
-1142 l336 -678 1570 0 1570 0 164 332 c90 183 347 702 570 1152 224 451 408
823 409 827 1 4 -18 21 -43 37 l-45 29 -395 -200 c-217 -110 -536 -271 -709
-359 -172 -88 -325 -164 -340 -168 -17 -5 -39 -3 -58 5 -33 14 -46 35 -153
240 -35 66 -86 165 -115 220 -29 55 -83 159 -120 230 -81 155 -170 326 -235
450 -26 50 -78 149 -115 220 -78 150 -146 281 -235 450 -35 66 -82 157 -106
203 l-42 83 -19 -33z"/>
<path d="M387 4398 c-112 -24 -248 -131 -297 -233 -87 -185 -52 -385 91 -525
232 -225 625 -128 729 180 111 331 -179 652 -523 578z"/>
<path d="M6400 4395 c-106 -28 -197 -93 -259 -186 -148 -221 -68 -524 170
-644 303 -154 662 79 645 418 -15 285 -283 483 -556 412z"/>
</g>
</svg>
