<svg xmlns="http://www.w3.org/2000/svg" viewBox="0 0 1620.39 879.3"><title>kmlineAsset 5</title><path d="M1603.37,840.68H97.37v-786h1506ZM194.74,97.35a97.37,97.37,0,1,0-97.37,97.37A97.48,97.48,0,0,0,194.74,97.35Zm1251.58-43a39,39,0,1,0-39,38.94A39,39,0,0,0,1446.32,54.36Zm-1213,786a39,39,0,1,0-38.95,38.94A39,39,0,0,0,233.32,840.36Z" fill="#63e6be"/><path d="M788.51,704.35a81.14,81.14,0,1,0-81.14,81.14A81.23,81.23,0,0,0,788.51,704.35Z" fill="#fff"/><path d="M1407.28,569.35a64.91,64.91,0,1,0-64.91,64.92A65,65,0,0,0,1407.28,569.35Z" fill="#fff"/><path d="M481.36,570.88l-63.23,54-.15-9.1L488.83,676H457.61l-63-55.25,56.05-49.9ZM373.11,676V570.88h21.62V676Zm129.2-116.2h24.55v18.52H502.31ZM503.93,676V595.25h21.13V676Zm42.25,0V595.25h21.13V676Zm58.68-82.58h0a46.68,46.68,0,0,1,13.8,1.95,30.79,30.79,0,0,1,11.05,6A27,27,0,0,1,637,611.75a38.44,38.44,0,0,1,2.6,14.85h0V676H618.51V630.35q0-10.23-5-15t-16.15-4.8h0a35,35,0,0,0-15.27,3.25,32.64,32.64,0,0,0-11.05,8.2,19.57,19.57,0,0,0-4.88,10.32h0L566,624A32.91,32.91,0,0,1,569.76,613a37.16,37.16,0,0,1,19.65-16.87A42.78,42.78,0,0,1,604.86,593.45Zm94.25,70.23h0a62.25,62.25,0,0,1-23.18-4,33.75,33.75,0,0,1-15.5-11.78q-5.52-7.8-5.52-18.85h0a33,33,0,0,1,5.35-18.85,34.77,34.77,0,0,1,15.35-12.35q10-4.4,23.5-4.4h0a51.47,51.47,0,0,1,7.22.5,68.28,68.28,0,0,1,6.9,1.3h0l40.8.15v16a62.41,62.41,0,0,1-16.82-2.05,129.78,129.78,0,0,1-15-4.77h0l-.5-1.15a53.78,53.78,0,0,1,10.4,6.42,32.67,32.67,0,0,1,7.88,8.78A21.56,21.56,0,0,1,743,630h0a30.52,30.52,0,0,1-5.37,18.12,33.41,33.41,0,0,1-15.2,11.53Q712.59,663.67,699.11,663.68Zm48.25,45.65H726.23v-3.9q0-7.48-4.8-10.4t-13.07-2.93H683.18A55.1,55.1,0,0,1,670.91,691a21.76,21.76,0,0,1-7.88-3.22,12.63,12.63,0,0,1-4.22-5,14.36,14.36,0,0,1-1.3-6.1h0q0-6.48,4.22-9.82t11.38-4.45a66.82,66.82,0,0,1,15.75-.5h0l10.25,1.8q-10.26.3-15.2,1.7T679,670.83h0a4.41,4.41,0,0,0,1.95,3.8,9.38,9.38,0,0,0,5.52,1.4h26.48a64.23,64.23,0,0,1,18.6,2.35,21.87,21.87,0,0,1,11.8,8q4.05,5.59,4.05,15.37h0Zm-48.25-61h0a31,31,0,0,0,12.25-2.25,18.44,18.44,0,0,0,8.22-6.6,17.88,17.88,0,0,0,2.93-10.3h0a18.67,18.67,0,0,0-2.93-10.58,19,19,0,0,0-8.12-6.75,29.78,29.78,0,0,0-12.35-2.35h0a30.37,30.37,0,0,0-12.35,2.35,17.82,17.82,0,0,0-11.23,17.33h0a17.88,17.88,0,0,0,2.93,10.3,18.44,18.44,0,0,0,8.2,6.6A31.67,31.67,0,0,0,699.11,648.38Zm65.47.82h19.5a16.7,16.7,0,0,0,7.4,9q5.61,3.49,14.7,3.5h0a31.43,31.43,0,0,0,9.58-1.15,8.28,8.28,0,0,0,4.72-3.33,9.55,9.55,0,0,0,1.3-5h0a6.71,6.71,0,0,0-2.1-5.28,16.22,16.22,0,0,0-6.5-3A108.49,108.49,0,0,0,802,641.9h0q-6.83-1.15-13.15-2.77a48.38,48.38,0,0,1-11.23-4.3,22,22,0,0,1-7.72-6.83A17.51,17.51,0,0,1,767,617.85h0a19.17,19.17,0,0,1,2.85-10.4,23.71,23.71,0,0,1,8-7.65,41.33,41.33,0,0,1,12-4.72,64.42,64.42,0,0,1,14.87-1.63h0q12,0,20,3.5a25,25,0,0,1,15.92,24.13H822q-1.31-6-5.2-8.68t-12-2.67h0q-8,0-12,2.42t-4.08,6.65h0a6.21,6.21,0,0,0,2.53,5.3,20.13,20.13,0,0,0,7.47,3q4.95,1.15,12.43,2.45h0q6.35,1.31,12.1,2.9a49.49,49.49,0,0,1,10.32,4.15,19.89,19.89,0,0,1,7.23,6.68,18.76,18.76,0,0,1,2.7,10.47h0a19.9,19.9,0,0,1-4.48,13.18q-4.47,5.34-12.75,8.2A61.24,61.24,0,0,1,806.36,678h0a62.57,62.57,0,0,1-17.65-2.2,40.64,40.64,0,0,1-12.25-5.7,30.64,30.64,0,0,1-7.58-7.48,26.11,26.11,0,0,1-3.65-7.55A15.12,15.12,0,0,1,764.58,649.2ZM923,570.88l60.1,94.42H972.91l60.45-94.42H1055V676h-21.62V599.65l5.2,1.45L990.31,676H966.08l-48.27-74.6L923,600V676H901.41V570.88Zm227.83,78.32h20.47a29.39,29.39,0,0,1-6.92,14.78,37.47,37.47,0,0,1-15.2,10.25q-9.59,3.75-23.4,3.75h0q-15.43,0-27.28-5A41.82,41.82,0,0,1,1080,658.63q-6.64-9.43-6.65-22.75h0q0-13.33,6.5-22.83A41.08,41.08,0,0,1,1098,598.5q11.6-5.06,27.2-5h0q15.91,0,26.5,5a32.82,32.82,0,0,1,15.67,15.2q5.13,10.15,4.33,25.9h-77a23.22,23.22,0,0,0,4.63,11.23,26.22,26.22,0,0,0,10.4,8,38.34,38.34,0,0,0,15.67,2.93h0q10.08,0,16.83-3.5T1150.86,649.2Zm-26.65-39.65h0q-11.73,0-19,5.13t-9.42,12.6h54.92a17.24,17.24,0,0,0-7.72-12.93Q1136.06,609.55,1124.21,609.55Zm102.52,68.25h0a45.54,45.54,0,0,1-21.85-5.27,40,40,0,0,1-15.6-14.8,41.53,41.53,0,0,1-5.77-22h0q0-12.86,5.85-22.28a40.6,40.6,0,0,1,15.85-14.7,47.56,47.56,0,0,1,22.65-5.3h0q14,0,22.52,5.63a32.25,32.25,0,0,1,12.43,15.2,56.37,56.37,0,0,1,3.9,21.45h0a49,49,0,0,1-2.28,14.52,44.12,44.12,0,0,1-7,13.65A34.46,34.46,0,0,1,1245.11,674Q1237.46,677.81,1226.73,677.8Zm6.83-16.25h0a39,39,0,0,0,16.57-3.25,23.8,23.8,0,0,0,14.45-22.57h0a25,25,0,0,0-3.8-14.08,24.12,24.12,0,0,0-10.72-8.77,41.35,41.35,0,0,0-16.5-3h0q-13.5,0-21,7.07t-7.48,18.78h0a25.1,25.1,0,0,0,3.58,13.55,24.5,24.5,0,0,0,10,9A32.51,32.51,0,0,0,1233.56,661.55Zm31-6.32v-60h21.15V676h-19.67s-.14-1.06-.4-3.18-.51-4.8-.73-8.05-.35-6.44-.35-9.57Zm42,20.8V562.75h21.1V676Z" fill="#0f0a0a"/><circle cx="850.37" cy="339.24" r="144.72" fill="#fff"/><path d="M926.19,338.85a11.27,11.27,0,1,0-11.27-11.27A11.28,11.28,0,0,0,926.19,338.85Z" fill="#0f0a0a"/><path d="M785.82,327.59a11.27,11.27,0,1,0-11.27,11.26A11.28,11.28,0,0,0,785.82,327.59Z" fill="#0f0a0a"/><path d="M861.64,289.36a11.27,11.27,0,1,0-11.27,11.27A11.29,11.29,0,0,0,861.64,289.36Z" fill="#0f0a0a"/><path d="M781.88,342l29,58.37H889.9l29-58.37a16.83,16.83,0,0,1-2.39-1.5l-35.76,18.14a2.45,2.45,0,0,1-3.3-1.06l-27-51.65-27,51.65a2.46,2.46,0,0,1-3.31,1.06l-35.74-18.14a16.6,16.6,0,0,1-2.4,1.5Z" fill="#0f0a0a"/><rect x="82.89" y="39.68" width="1536" height="816" fill="none" stroke="#000" stroke-miterlimit="10" stroke-width="3"/></svg>