<svg xmlns="http://www.w3.org/2000/svg" viewBox="0 0 510 510">
	<g>
		<path d="M474.4,253.9c18,0,32.6-14.6,32.6-32.6c0-18-14.6-32.6-32.6-32.6s-32.6,14.6-32.6,32.6
		C441.8,239.2,456.4,253.9,474.4,253.9z" />
		<path
			d="M68.2,221.3c0-18-14.6-32.6-32.6-32.6S3,203.3,3,221.3c0,18,14.6,32.6,32.6,32.6S68.2,239.2,68.2,221.3z" />
		<path
			d="M287.6,110.7c0-18-14.6-32.6-32.6-32.6s-32.6,14.6-32.6,32.6c0,18,14.6,32.6,32.6,32.6S287.6,128.6,287.6,110.7z" />
		<path d="M56.8,263.1l83.8,168.9h228.7l83.8-168.9c-2.4-1.2-4.8-2.7-6.9-4.3l-103.5,52.5c-3.5,1.8-7.8,0.4-9.6-3.1L255,158.7
		l-78.2,149.5c-1.8,3.5-6.1,4.8-9.6,3.1L63.8,258.7C61.6,260.4,59.3,261.8,56.8,263.1L56.8,263.1z" />
	</g>
</svg>